PathFileType	4	(X/Y/Z)	50_1_2_p0_0-180.trc
DataRate	CameraRate	NumFrames	NumMarkers	Units	OrigDataRate	OrigDataStartFrame	OrigNumFrames
59.0	59.0	6	27	m	59.0	0	181
Frame#	Time	RHip			RKnee			RAnkle			RBigToe			RSmallToe			RHeel			LHip			LKnee			LAnkle			LBigToe			LSmallToe			LHeel			Neck			Head			Nose			RShoulder			RElbow			RWrist			RThumb			RIndex			RPinky			LShoulder			LElbow			LWrist			LThumb			LIndex			LPinky			
		X1	Y1	Z1	X2	Y2	Z2	X3	Y3	Z3	X4	Y4	Z4	X5	Y5	Z5	X6	Y6	Z6	X7	Y7	Z7	X8	Y8	Z8	X9	Y9	Z9	X10	Y10	Z10	X11	Y11	Z11	X12	Y12	Z12	X13	Y13	Z13	X14	Y14	Z14	X15	Y15	Z15	X16	Y16	Z16	X17	Y17	Z17	X18	Y18	Z18	X19	Y19	Z19	X20	Y20	Z20	X21	Y21	Z21	X22	Y22	Z22	X23	Y23	Z23	X24	Y24	Z24	X25	Y25	Z25	X26	Y26	Z26	X27	Y27	Z27	
0	0.0	0.3107432663238701	0.7555647046202504	0.4904473299246449	0.31846034492592584	0.8763360368467312	0.8889543057008247	0.320024564758308	1.0165428400338234	1.3380500333378256	0.2609231168392457	0.8715512721173976	1.4137259522236287	0.3411798810098738	0.9016968422070127	1.4211815004421882	0.28711086980636896	1.1247140680908374	1.3973132011390004	0.11162824940721353	0.7643374744741979	0.5137766652460404	0.10028625552742726	0.8774359168111665	0.8781990107907856	0.08867624484960711	1.012069898512386	1.3108884316985572	0.10222858043997703	0.8582452343160168	1.3914731108019933	0.03847053029139934	0.8763588374132801	1.3800577020004954	0.10841044845011294	1.1011205214643276	1.3961813078328784	0.19059994127207183	0.6229304285673494	-0.014360138578579824	0.20338097492149937	0.5332456552141495	-0.23537029194382625	0.20946808945272605	0.4985971504340948	-0.10513071246672295	0.33737329983885495	0.5843267673871532	0.07636041465050161	0.33428579978734263	0.5815622733677656	0.3426747699322129	0.24390585083067556	0.4838479256269916	0.556714200684432	0.18620305861599912	0.5337984270035943	0.6405556642471818	0.1866609830144051	0.5501139331812336	0.6721765037749591	0.19152014311936566	0.5727787339536268	0.666144890769089	0.05421022367258124	0.6507086430898288	0.07343293367587239	0.05520494882921664	0.6366090647846048	0.3368553906078239	0.1204658272258951	0.5244638579011343	0.5407666988399561	0.19862061306389733	0.48944199318010206	0.5955760940946595	0.1901550388717474	0.5161924453719917	0.633587024505471	0.1648836532645557	0.551230810487319	0.6733557193311318
1	0.01694915254237288	0.31068176970387706	0.7552557752731637	0.49039051199352673	0.3192160995442447	0.8744609710329758	0.884548767495504	0.3200481977676289	1.0163842900378088	1.3379109846603776	0.2608835459888136	0.8715628992623204	1.4137355609822762	0.3411399796535566	0.9016904227420516	1.4211192951119898	0.2871184783855654	1.1242840943442391	1.3971140222713425	0.11160040656072583	0.7637999267101784	0.5138399878564505	0.10023855812095964	0.87626143471229	0.8785431322585667	0.08863640150170314	1.0121455597433981	1.3108739522643402	0.10203640597064029	0.8588610349499012	1.3872561351578268	0.03810825729558576	0.8765832824086263	1.3762469539678603	0.10449478652251568	1.0849765047147306	1.3915138198743948	0.19022242666255018	0.6215092240045464	-0.014518095391538281	0.20333842685368986	0.5333660032680808	-0.23526710943920587	0.2098359860734485	0.5002107924025571	-0.10199763782725182	0.33729854998568165	0.5844733284177737	0.07629958411037299	0.334269506059815	0.5815793772114739	0.34261580103225747	0.2446219296764484	0.4831649378000325	0.5570221611136151	0.18216985671419367	0.5440648447926896	0.6336412145527524	0.1794066430898272	0.5604102360076703	0.6634162502821959	0.19135829730854617	0.5734583053299965	0.6657232966627619	0.05451038578103787	0.6500103206539114	0.07023050330154956	0.05522371569795247	0.6363620282146133	0.3367818896854833	0.11626175234319258	0.5232901653924279	0.5405236500347296	0.19127897432627516	0.49272133699940235	0.5957532863513872	0.18649653635924027	0.5157472844579226	0.6332469194629149	0.1646202107847054	0.5514917135299359	0.6698733343974086
2	0.03389830508474576	0.30991756753639144	0.7527743384165808	0.48586430708669154	0.3142942758347537	0.858490423967147	0.882484148332894	0.32003310388588674	1.016325200612988	1.3378002257798856	0.26086336721773645	0.8715509014033993	1.4137544405772684	0.34114888375080726	0.9016851970456496	1.421080416113377	0.2869255526776033	1.1251126128578273	1.3931357667091178	0.11096517974384362	0.7609120148254406	0.5092152438902097	0.10015355421152357	0.8763979717458239	0.8749125094355011	0.08868809002308525	1.0120113662773713	1.3107270650004659	0.10226135847249332	0.8581847182157955	1.3914079404047326	0.0381473645386886	0.8766315342646748	1.3761917309476512	0.10961756772728945	1.0996012726966418	1.3908883672480037	0.19018528174629143	0.6215842343083686	-0.014552754082497218	0.20331232051626832	0.5335805709090385	-0.23530576209950296	0.20982958537766408	0.5003258681943963	-0.10205204751400597	0.33730365808772034	0.5844566124420507	0.07630994111340705	0.3342545099662123	0.5815894485342048	0.34261996527679073	0.24438809682580703	0.48307168726103683	0.5532626993746975	0.18151127453059834	0.5447523388498404	0.6361870532959907	0.17886862337762363	0.5612346696666705	0.6659290985942599	0.19118176315935784	0.5736376000957638	0.6623459800003786	0.05421938890094221	0.6505822113275571	0.07333914612628102	0.05239441205524892	0.623780377710536	0.337096868145151	0.1158120671197178	0.5213067716631835	0.5365667168157449	0.19107132521807157	0.49264163116605375	0.5924478379350396	0.18226580125795544	0.503665780737858	0.628728711971866	0.16092492917208703	0.5391312160774074	0.6685826619552386
3	0.05084745762711865	0.30994076742581034	0.7526689811971149	0.48585627149759697	0.31833959257844	0.8749329288451905	0.8885514246082706	0.3200632132392932	1.0163526305791653	1.3377775694303746	0.2608623937337699	0.8715892848072389	1.4137626087515012	0.3411761116004052	0.9017284612888665	1.4210649975926033	0.28692916645867567	1.1251261195352775	1.3931442291654736	0.11102922330565344	0.760954520713875	0.5091880441290826	0.10034158186608236	0.8764790627744854	0.8785308896425319	0.08868414818389593	1.0120388921140449	1.310739523279774	0.10200861965409785	0.8589365134050779	1.3872252300445402	0.03812938440265136	0.8767157580775821	1.3761885406069843	0.10963718399661714	1.0993753605138052	1.3907782379422413	0.19013862896376307	0.6214757251246715	-0.01456760023322875	0.2033230984903276	0.5337415045180609	-0.23534923765005897	0.20960464713986052	0.4988097098946376	-0.10517972943839775	0.33727920381785353	0.5844003093968825	0.07633672605180614	0.33424543825880537	0.5816009481118785	0.34263810009792633	0.24088885682494415	0.496820414971319	0.5575969087771758	0.18149773527248259	0.5448695456063248	0.6361848157257207	0.1788779039594055	0.5612764658007868	0.6659802879925527	0.19122134726709566	0.5736010457562043	0.6624461767226364	0.054221243768717134	0.6506421800284411	0.07338687328203725	0.051899883279035906	0.6243829978685953	0.3405088574191019	0.11583211262783685	0.5214737967846428	0.5365576161106143	0.19110144031928672	0.49276947156469403	0.5924897632035809	0.1822966146624052	0.5037324250349542	0.628736082940751	0.16099098882105792	0.5390806954151975	0.6685723499784412
4	0.06779661016949153	0.30992597647262615	0.7527068983018075	0.4857699795239956	0.31902542314161647	0.873769900801581	0.8846060189975937	0.32005405324836983	1.016299815790942	1.3377745713624718	0.26084456157060243	0.8715868025662837	1.4138534484229477	0.3411505425708415	0.9016841942369913	1.4211238215893416	0.28688803739332064	1.1250925233204125	1.3931772811664993	0.1110102348961589	0.7606831467669528	0.505434542064891	0.10016604773293589	0.8767175669367061	0.874992684531909	0.08870722647862132	1.012027494149685	1.3107179546019823	0.10224235082519152	0.858244682755121	1.391415366226779	0.038101171257829095	0.8767913290755592	1.3762464025519916	0.10965921678654443	1.0992256057170862	1.3906909452389358	0.19011518308448602	0.6215205569236277	-0.01456358095838846	0.2032894264987705	0.5340185791028209	-0.23536038467962653	0.21352410615896023	0.4999426219102349	-0.1054053740805107	0.33727923108643093	0.5844092607924626	0.07631676775512264	0.3342620832957817	0.5816621014905102	0.3426331072767125	0.24139563918890689	0.49612920340305344	0.5541817604426301	0.1814914682337521	0.5449187904967168	0.63616233932074	0.17888028442453344	0.561338135858719	0.6660295648663853	0.19124330905811637	0.5735830043067518	0.6624429397180187	0.05422214146075652	0.6506774717612668	0.0733724780644487	0.05519852820937817	0.6365326377594753	0.33685379556731215	0.11585164298555944	0.5213991603022282	0.5365102206394897	0.1910921601098881	0.49252002964398656	0.5924427252883993	0.18233421743210618	0.5035549476406357	0.6287125307192175	0.16092745130196687	0.5392166411805197	0.6686308186781635
5	0.0847457627118644	0.3106401223507488	0.7551906605749481	0.49018637680689575	0.3183004063904386	0.8748647730957642	0.8886709839246596	0.32007355323346537	1.0163461689596294	1.337794528251927	0.2608439709975739	0.8715754586431937	1.4138516692572718	0.3411548952108708	0.901704758271014	1.421116086258046	0.2870966092329623	1.1243586494623024	1.3970983298094304	0.11233074228403822	0.7631980672732207	0.5101588652609343	0.10015280124640233	0.8769437169999276	0.8749736090635606	0.08871049911570995	1.0120461189894436	1.3107378162666945	0.10223519535891257	0.8582208619278596	1.3914200379646613	0.038100979696584214	0.876799852049543	1.3762525616107055	0.10581023167756853	1.0829664619685244	1.3860602886651328	0.1901379684897035	0.62160649991638	-0.01456115797677927	0.20324273311155072	0.5342150673785265	-0.23535722624381208	0.21352691311267719	0.49996269071065813	-0.10542712046553164	0.33727009251705414	0.5844023881410748	0.07631725626043677	0.33426165020738935	0.5816741132705338	0.3426376644790908	0.24143147933706594	0.49620253284529026	0.5541806763316889	0.18147064781000008	0.544987593005468	0.6360953079868596	0.1788405504467498	0.5613837006214496	0.6660635849488198	0.1912334943723653	0.5735960778437859	0.6624860381505634	0.05421218667366369	0.6506674462773392	0.07340915959401367	0.05517879106689343	0.6364654102926082	0.3369243719741346	0.11585100382227509	0.5214951950680555	0.5365654817270638	0.18712580720059155	0.49084214034051843	0.592282749701915	0.18626677528213595	0.5156946834382836	0.6295470505845322	0.1645808664620453	0.5514024471342431	0.669810920187233
